<svg width="137" height="41" viewBox="0 0 137 41" fill="none" xmlns="http://www.w3.org/2000/svg">
<path d="M31.4602 39.8923V35.3923H31.946V35.9122H32.0057C32.0426 35.8554 32.0938 35.7829 32.1591 35.6949C32.2259 35.6054 32.321 35.5258 32.4446 35.4562C32.5696 35.3852 32.7386 35.3497 32.9517 35.3497C33.2273 35.3497 33.4702 35.4186 33.6804 35.5564C33.8906 35.6942 34.0547 35.8895 34.1726 36.1423C34.2905 36.3952 34.3494 36.6934 34.3494 37.0372C34.3494 37.3838 34.2905 37.6842 34.1726 37.9385C34.0547 38.1913 33.8913 38.3873 33.6825 38.5265C33.4737 38.6643 33.233 38.7332 32.9602 38.7332C32.75 38.7332 32.5817 38.6984 32.4553 38.6288C32.3288 38.5578 32.2315 38.4775 32.1634 38.3881C32.0952 38.2971 32.0426 38.2219 32.0057 38.1622H31.9631V39.8923H31.4602ZM31.9545 37.0287C31.9545 37.2758 31.9908 37.4939 32.0632 37.6828C32.1357 37.8703 32.2415 38.0173 32.3807 38.1238C32.5199 38.229 32.6903 38.2815 32.892 38.2815C33.1023 38.2815 33.2777 38.2261 33.4183 38.1153C33.5604 38.0031 33.6669 37.8525 33.7379 37.6636C33.8104 37.4733 33.8466 37.2616 33.8466 37.0287C33.8466 36.7986 33.8111 36.5912 33.7401 36.4065C33.6705 36.2204 33.5646 36.0734 33.4226 35.9655C33.282 35.8561 33.1051 35.8014 32.892 35.8014C32.6875 35.8014 32.5156 35.8532 32.3764 35.9569C32.2372 36.0592 32.1321 36.2027 32.0611 36.3873C31.9901 36.5706 31.9545 36.7844 31.9545 37.0287ZM36.446 38.7332C36.1506 38.7332 35.8913 38.6629 35.6683 38.5223C35.4467 38.3817 35.2734 38.1849 35.1484 37.9321C35.0249 37.6792 34.9631 37.3838 34.9631 37.0457C34.9631 36.7048 35.0249 36.4072 35.1484 36.153C35.2734 35.8987 35.4467 35.7013 35.6683 35.5606C35.8913 35.42 36.1506 35.3497 36.446 35.3497C36.7415 35.3497 37 35.42 37.2216 35.5606C37.4446 35.7013 37.6179 35.8987 37.7415 36.153C37.8665 36.4072 37.929 36.7048 37.929 37.0457C37.929 37.3838 37.8665 37.6792 37.7415 37.9321C37.6179 38.1849 37.4446 38.3817 37.2216 38.5223C37 38.6629 36.7415 38.7332 36.446 38.7332ZM36.446 38.2815C36.6705 38.2815 36.8551 38.224 37 38.1089C37.1449 37.9939 37.2521 37.8426 37.3217 37.6551C37.3913 37.4676 37.4261 37.2645 37.4261 37.0457C37.4261 36.827 37.3913 36.6231 37.3217 36.4342C37.2521 36.2453 37.1449 36.0926 37 35.9761C36.8551 35.8596 36.6705 35.8014 36.446 35.8014C36.2216 35.8014 36.0369 35.8596 35.892 35.9761C35.7472 36.0926 35.6399 36.2453 35.5703 36.4342C35.5007 36.6231 35.4659 36.827 35.4659 37.0457C35.4659 37.2645 35.5007 37.4676 35.5703 37.6551C35.6399 37.8426 35.7472 37.9939 35.892 38.1089C36.0369 38.224 36.2216 38.2815 36.446 38.2815ZM39.3267 38.665L38.3295 35.3923H38.858L39.5653 37.898H39.5994L40.2983 35.3923H40.8352L41.5256 37.8895H41.5597L42.267 35.3923H42.7955L41.7983 38.665H41.304L40.5881 36.1508H40.5369L39.821 38.665H39.3267ZM44.7211 38.7332C44.4057 38.7332 44.1337 38.6636 43.905 38.5244C43.6777 38.3838 43.5023 38.1878 43.3787 37.9363C43.2566 37.6835 43.1955 37.3895 43.1955 37.0542C43.1955 36.719 43.2566 36.4236 43.3787 36.1679C43.5023 35.9108 43.6742 35.7105 43.8944 35.567C44.1159 35.4221 44.3745 35.3497 44.6699 35.3497C44.8404 35.3497 45.0087 35.3781 45.1749 35.4349C45.3411 35.4917 45.4924 35.5841 45.6287 35.7119C45.7651 35.8383 45.8738 36.0059 45.9547 36.2148C46.0357 36.4236 46.0762 36.6807 46.0762 36.9861V37.1991H43.5534V36.7645H45.5648C45.5648 36.5798 45.5279 36.415 45.454 36.2702C45.3816 36.1253 45.2779 36.0109 45.1429 35.9271C45.0094 35.8433 44.8517 35.8014 44.6699 35.8014C44.4696 35.8014 44.2963 35.8511 44.15 35.9506C44.0051 36.0486 43.8936 36.1764 43.8155 36.3341C43.7374 36.4917 43.6983 36.6608 43.6983 36.8412V37.1309C43.6983 37.3781 43.7409 37.5876 43.8262 37.7595C43.9128 37.93 44.0328 38.0599 44.1863 38.1494C44.3397 38.2375 44.5179 38.2815 44.7211 38.2815C44.8532 38.2815 44.9725 38.2631 45.079 38.2261C45.187 38.1878 45.28 38.1309 45.3581 38.0557C45.4363 37.979 45.4966 37.8838 45.5392 37.7702L46.025 37.9065C45.9739 38.0713 45.888 38.2162 45.7672 38.3412C45.6465 38.4648 45.4973 38.5613 45.3198 38.6309C45.1422 38.6991 44.9426 38.7332 44.7211 38.7332ZM46.8411 38.665V35.3923H47.3269V35.8866H47.361C47.4206 35.7247 47.5286 35.5933 47.6848 35.4925C47.8411 35.3916 48.0172 35.3412 48.2132 35.3412C48.2502 35.3412 48.2963 35.3419 48.3517 35.3433C48.4071 35.3447 48.449 35.3469 48.4775 35.3497V35.8611C48.4604 35.8568 48.4213 35.8504 48.3603 35.8419C48.3006 35.8319 48.2374 35.827 48.1706 35.827C48.0115 35.827 47.8695 35.8604 47.7445 35.9271C47.6209 35.9925 47.5229 36.0834 47.4505 36.1998C47.3794 36.3149 47.3439 36.4463 47.3439 36.594V38.665H46.8411ZM50.3461 38.7332C50.0307 38.7332 49.7587 38.6636 49.53 38.5244C49.3027 38.3838 49.1273 38.1878 49.0037 37.9363C48.8816 37.6835 48.8205 37.3895 48.8205 37.0542C48.8205 36.719 48.8816 36.4236 49.0037 36.1679C49.1273 35.9108 49.2992 35.7105 49.5194 35.567C49.7409 35.4221 49.9995 35.3497 50.2949 35.3497C50.4654 35.3497 50.6337 35.3781 50.7999 35.4349C50.9661 35.4917 51.1174 35.5841 51.2537 35.7119C51.3901 35.8383 51.4988 36.0059 51.5797 36.2148C51.6607 36.4236 51.7012 36.6807 51.7012 36.9861V37.1991H49.1784V36.7645H51.1898C51.1898 36.5798 51.1529 36.415 51.079 36.2702C51.0066 36.1253 50.9029 36.0109 50.7679 35.9271C50.6344 35.8433 50.4767 35.8014 50.2949 35.8014C50.0946 35.8014 49.9213 35.8511 49.775 35.9506C49.6301 36.0486 49.5186 36.1764 49.4405 36.3341C49.3624 36.4917 49.3233 36.6608 49.3233 36.8412V37.1309C49.3233 37.3781 49.3659 37.5876 49.4512 37.7595C49.5378 37.93 49.6578 38.0599 49.8113 38.1494C49.9647 38.2375 50.1429 38.2815 50.3461 38.2815C50.4782 38.2815 50.5975 38.2631 50.704 38.2261C50.812 38.1878 50.905 38.1309 50.9831 38.0557C51.0613 37.979 51.1216 37.8838 51.1642 37.7702L51.65 37.9065C51.5989 38.0713 51.513 38.2162 51.3922 38.3412C51.2715 38.4648 51.1223 38.5613 50.9448 38.6309C50.7672 38.6991 50.5676 38.7332 50.3461 38.7332ZM53.7019 38.7332C53.4292 38.7332 53.1884 38.6643 52.9796 38.5265C52.7708 38.3873 52.6074 38.1913 52.4895 37.9385C52.3716 37.6842 52.3127 37.3838 52.3127 37.0372C52.3127 36.6934 52.3716 36.3952 52.4895 36.1423C52.6074 35.8895 52.7715 35.6942 52.9817 35.5564C53.1919 35.4186 53.4348 35.3497 53.7104 35.3497C53.9235 35.3497 54.0918 35.3852 54.2154 35.4562C54.3404 35.5258 54.4355 35.6054 54.5009 35.6949C54.5676 35.7829 54.6195 35.8554 54.6564 35.9122H54.699V34.3014H55.2019V38.665H54.7161V38.1622H54.6564C54.6195 38.2219 54.5669 38.2971 54.4988 38.3881C54.4306 38.4775 54.3333 38.5578 54.2069 38.6288C54.0804 38.6984 53.9121 38.7332 53.7019 38.7332ZM53.7701 38.2815C53.9718 38.2815 54.1422 38.229 54.2814 38.1238C54.4206 38.0173 54.5265 37.8703 54.5989 37.6828C54.6713 37.4939 54.7076 37.2758 54.7076 37.0287C54.7076 36.7844 54.6721 36.5706 54.601 36.3873C54.53 36.2027 54.4249 36.0592 54.2857 35.9569C54.1465 35.8532 53.9746 35.8014 53.7701 35.8014C53.557 35.8014 53.3794 35.8561 53.2374 35.9655C53.0968 36.0734 52.9909 36.2204 52.9199 36.4065C52.8503 36.5912 52.8155 36.7986 52.8155 37.0287C52.8155 37.2616 52.851 37.4733 52.9221 37.6636C52.9945 37.8525 53.101 38.0031 53.2417 38.1153C53.3837 38.2261 53.5598 38.2815 53.7701 38.2815ZM57.9483 38.665V34.3014H58.4512V35.9122H58.4938C58.5307 35.8554 58.5819 35.7829 58.6472 35.6949C58.714 35.6054 58.8091 35.5258 58.9327 35.4562C59.0577 35.3852 59.2267 35.3497 59.4398 35.3497C59.7154 35.3497 59.9583 35.4186 60.1685 35.5564C60.3787 35.6942 60.5428 35.8895 60.6607 36.1423C60.7786 36.3952 60.8375 36.6934 60.8375 37.0372C60.8375 37.3838 60.7786 37.6842 60.6607 37.9385C60.5428 38.1913 60.3794 38.3873 60.1706 38.5265C59.9618 38.6643 59.7211 38.7332 59.4483 38.7332C59.2381 38.7332 59.0698 38.6984 58.9434 38.6288C58.8169 38.5578 58.7196 38.4775 58.6515 38.3881C58.5833 38.2971 58.5307 38.2219 58.4938 38.1622H58.4341V38.665H57.9483ZM58.4426 37.0287C58.4426 37.2758 58.4789 37.4939 58.5513 37.6828C58.6238 37.8703 58.7296 38.0173 58.8688 38.1238C59.008 38.229 59.1784 38.2815 59.3801 38.2815C59.5904 38.2815 59.7658 38.2261 59.9064 38.1153C60.0485 38.0031 60.155 37.8525 60.226 37.6636C60.2985 37.4733 60.3347 37.2616 60.3347 37.0287C60.3347 36.7986 60.2992 36.5912 60.2282 36.4065C60.1586 36.2204 60.0527 36.0734 59.9107 35.9655C59.7701 35.8561 59.5932 35.8014 59.3801 35.8014C59.1756 35.8014 59.0037 35.8532 58.8645 35.9569C58.7253 36.0592 58.6202 36.2027 58.5492 36.3873C58.4782 36.5706 58.4426 36.7844 58.4426 37.0287ZM61.8134 39.8923C61.7282 39.8923 61.6522 39.8852 61.5854 39.871C61.5186 39.8582 61.4725 39.8454 61.4469 39.8327L61.5748 39.3895C61.6969 39.4207 61.8049 39.4321 61.8986 39.4236C61.9924 39.415 62.0755 39.3731 62.1479 39.2979C62.2218 39.224 62.2892 39.104 62.3503 38.9378L62.4441 38.6821L61.2338 35.3923H61.7793L62.6827 38.0003H62.7168L63.6202 35.3923H64.1657L62.7765 39.1423C62.714 39.3113 62.6365 39.4513 62.5442 39.5621C62.4519 39.6743 62.3446 39.7574 62.2225 39.8113C62.1017 39.8653 61.9654 39.8923 61.8134 39.8923ZM67.4799 38.7417C67.2725 38.7417 67.0843 38.7027 66.9153 38.6246C66.7463 38.545 66.612 38.4307 66.5126 38.2815C66.4132 38.1309 66.3635 37.9491 66.3635 37.7361C66.3635 37.5486 66.4004 37.3966 66.4743 37.2801C66.5481 37.1622 66.6468 37.0699 66.7704 37.0031C66.894 36.9363 67.0304 36.8866 67.1795 36.854C67.3301 36.8199 67.4814 36.7929 67.6333 36.773C67.8322 36.7474 67.9934 36.7282 68.117 36.7155C68.242 36.7013 68.3329 36.6778 68.3897 36.6452C68.448 36.6125 68.4771 36.5557 68.4771 36.4747V36.4577C68.4771 36.2474 68.4196 36.0841 68.3045 35.9676C68.1909 35.8511 68.0183 35.7929 67.7868 35.7929C67.5467 35.7929 67.3585 35.8454 67.2221 35.9506C67.0858 36.0557 66.9899 36.1679 66.9345 36.2872L66.4572 36.1167C66.5424 35.9179 66.6561 35.7631 66.7981 35.6523C66.9416 35.54 67.0978 35.4619 67.2669 35.4179C67.4373 35.3724 67.6049 35.3497 67.7697 35.3497C67.8748 35.3497 67.9956 35.3625 68.1319 35.3881C68.2697 35.4122 68.4025 35.4626 68.5304 35.5393C68.6596 35.616 68.7669 35.7318 68.8521 35.8866C68.9373 36.0415 68.9799 36.2488 68.9799 36.5088V38.665H68.4771V38.2219H68.4515C68.4174 38.2929 68.3606 38.3689 68.2811 38.4498C68.2015 38.5308 68.0957 38.5997 67.9636 38.6565C67.8315 38.7133 67.6703 38.7417 67.4799 38.7417ZM67.5566 38.29C67.7555 38.29 67.9231 38.251 68.0595 38.1729C68.1973 38.0947 68.301 37.9939 68.3706 37.8703C68.4416 37.7467 68.4771 37.6167 68.4771 37.4804V37.0202C68.4558 37.0457 68.4089 37.0692 68.3365 37.0905C68.2654 37.1104 68.1831 37.1281 68.0893 37.1437C67.997 37.1579 67.9068 37.1707 67.8187 37.1821C67.7321 37.192 67.6618 37.2006 67.6078 37.2077C67.4771 37.2247 67.3549 37.2524 67.2413 37.2907C67.1291 37.3277 67.0382 37.3838 66.9686 37.4591C66.9004 37.5329 66.8663 37.6338 66.8663 37.7616C66.8663 37.9363 66.9309 38.0684 67.0602 38.1579C67.1909 38.246 67.3564 38.29 67.5566 38.29ZM70.8608 38.7417C70.6534 38.7417 70.4652 38.7027 70.2962 38.6246C70.1271 38.545 69.9929 38.4307 69.8935 38.2815C69.794 38.1309 69.7443 37.9491 69.7443 37.7361C69.7443 37.5486 69.7813 37.3966 69.8551 37.2801C69.929 37.1622 70.0277 37.0699 70.1513 37.0031C70.2749 36.9363 70.4112 36.8866 70.5604 36.854C70.7109 36.8199 70.8622 36.7929 71.0142 36.773C71.2131 36.7474 71.3743 36.7282 71.4979 36.7155C71.6229 36.7013 71.7138 36.6778 71.7706 36.6452C71.8288 36.6125 71.858 36.5557 71.858 36.4747V36.4577C71.858 36.2474 71.8004 36.0841 71.6854 35.9676C71.5717 35.8511 71.3991 35.7929 71.1676 35.7929C70.9276 35.7929 70.7393 35.8454 70.603 35.9506C70.4666 36.0557 70.3707 36.1679 70.3153 36.2872L69.8381 36.1167C69.9233 35.9179 70.0369 35.7631 70.179 35.6523C70.3224 35.54 70.4787 35.4619 70.6477 35.4179C70.8182 35.3724 70.9858 35.3497 71.1506 35.3497C71.2557 35.3497 71.3764 35.3625 71.5128 35.3881C71.6506 35.4122 71.7834 35.4626 71.9112 35.5393C72.0405 35.616 72.1477 35.7318 72.233 35.8866C72.3182 36.0415 72.3608 36.2488 72.3608 36.5088V38.665H71.858V38.2219H71.8324C71.7983 38.2929 71.7415 38.3689 71.6619 38.4498C71.5824 38.5308 71.4766 38.5997 71.3445 38.6565C71.2124 38.7133 71.0511 38.7417 70.8608 38.7417ZM70.9375 38.29C71.1364 38.29 71.304 38.251 71.4403 38.1729C71.5781 38.0947 71.6818 37.9939 71.7514 37.8703C71.8224 37.7467 71.858 37.6167 71.858 37.4804V37.0202C71.8366 37.0457 71.7898 37.0692 71.7173 37.0905C71.6463 37.1104 71.5639 37.1281 71.4702 37.1437C71.3778 37.1579 71.2876 37.1707 71.1996 37.1821C71.1129 37.192 71.0426 37.2006 70.9886 37.2077C70.858 37.2247 70.7358 37.2524 70.6222 37.2907C70.5099 37.3277 70.419 37.3838 70.3494 37.4591C70.2813 37.5329 70.2472 37.6338 70.2472 37.7616C70.2472 37.9363 70.3118 38.0684 70.4411 38.1579C70.5717 38.246 70.7372 38.29 70.9375 38.29ZM75.5968 36.1253L75.1451 36.2531C75.1167 36.1778 75.0748 36.1047 75.0194 36.0336C74.9654 35.9612 74.8915 35.9015 74.7978 35.8547C74.704 35.8078 74.584 35.7844 74.4377 35.7844C74.2374 35.7844 74.0705 35.8305 73.937 35.9229C73.8049 36.0138 73.7388 36.1295 73.7388 36.2702C73.7388 36.3952 73.7843 36.4939 73.8752 36.5663C73.9661 36.6388 74.1081 36.6991 74.3013 36.7474L74.7871 36.8667C75.0797 36.9378 75.2978 37.0464 75.4412 37.1927C75.5847 37.3376 75.6564 37.5244 75.6564 37.7531C75.6564 37.9406 75.6025 38.1082 75.4945 38.2559C75.388 38.4037 75.2388 38.5202 75.0471 38.6054C74.8553 38.6906 74.6323 38.7332 74.378 38.7332C74.0442 38.7332 73.7679 38.6608 73.5492 38.5159C73.3304 38.371 73.1919 38.1594 73.1337 37.8809L73.611 37.7616C73.6564 37.9378 73.7424 38.0699 73.8688 38.1579C73.9966 38.246 74.1635 38.29 74.3695 38.29C74.6039 38.29 74.79 38.2403 74.9277 38.1409C75.0669 38.04 75.1365 37.9193 75.1365 37.7787C75.1365 37.665 75.0968 37.5699 75.0172 37.4932C74.9377 37.415 74.8155 37.3568 74.6507 37.3184L74.1053 37.1906C73.8056 37.1196 73.5854 37.0095 73.4448 36.8604C73.3056 36.7098 73.236 36.5216 73.236 36.2957C73.236 36.1111 73.2878 35.9477 73.3915 35.8057C73.4966 35.6636 73.6394 35.5521 73.8198 35.4711C74.0016 35.3902 74.2076 35.3497 74.4377 35.3497C74.7615 35.3497 75.0158 35.4207 75.2005 35.5628C75.3865 35.7048 75.5186 35.8923 75.5968 36.1253ZM79.0895 35.3923L77.8793 38.665H77.3679L76.1577 35.3923H76.7031L77.6065 38.0003H77.6406L78.544 35.3923H79.0895ZM80.6167 38.7417C80.4093 38.7417 80.2211 38.7027 80.052 38.6246C79.883 38.545 79.7488 38.4307 79.6493 38.2815C79.5499 38.1309 79.5002 37.9491 79.5002 37.7361C79.5002 37.5486 79.5371 37.3966 79.611 37.2801C79.6848 37.1622 79.7836 37.0699 79.9071 37.0031C80.0307 36.9363 80.1671 36.8866 80.3162 36.854C80.4668 36.8199 80.6181 36.7929 80.7701 36.773C80.9689 36.7474 81.1301 36.7282 81.2537 36.7155C81.3787 36.7013 81.4696 36.6778 81.5265 36.6452C81.5847 36.6125 81.6138 36.5557 81.6138 36.4747V36.4577C81.6138 36.2474 81.5563 36.0841 81.4412 35.9676C81.3276 35.8511 81.155 35.7929 80.9235 35.7929C80.6834 35.7929 80.4952 35.8454 80.3588 35.9506C80.2225 36.0557 80.1266 36.1679 80.0712 36.2872L79.5939 36.1167C79.6792 35.9179 79.7928 35.7631 79.9348 35.6523C80.0783 35.54 80.2346 35.4619 80.4036 35.4179C80.574 35.3724 80.7417 35.3497 80.9064 35.3497C81.0115 35.3497 81.1323 35.3625 81.2686 35.3881C81.4064 35.4122 81.5392 35.4626 81.6671 35.5393C81.7963 35.616 81.9036 35.7318 81.9888 35.8866C82.074 36.0415 82.1167 36.2488 82.1167 36.5088V38.665H81.6138V38.2219H81.5882C81.5542 38.2929 81.4973 38.3689 81.4178 38.4498C81.3382 38.5308 81.2324 38.5997 81.1003 38.6565C80.9682 38.7133 80.807 38.7417 80.6167 38.7417ZM80.6934 38.29C80.8922 38.29 81.0598 38.251 81.1962 38.1729C81.334 38.0947 81.4377 37.9939 81.5073 37.8703C81.5783 37.7467 81.6138 37.6167 81.6138 37.4804V37.0202C81.5925 37.0457 81.5456 37.0692 81.4732 37.0905C81.4022 37.1104 81.3198 37.1281 81.226 37.1437C81.1337 37.1579 81.0435 37.1707 80.9554 37.1821C80.8688 37.192 80.7985 37.2006 80.7445 37.2077C80.6138 37.2247 80.4917 37.2524 80.378 37.2907C80.2658 37.3277 80.1749 37.3838 80.1053 37.4591C80.0371 37.5329 80.003 37.6338 80.003 37.7616C80.003 37.9363 80.0676 38.0684 80.1969 38.1579C80.3276 38.246 80.4931 38.29 80.6934 38.29ZM83.9975 38.7417C83.7901 38.7417 83.6019 38.7027 83.4329 38.6246C83.2638 38.545 83.1296 38.4307 83.0302 38.2815C82.9308 38.1309 82.881 37.9491 82.881 37.7361C82.881 37.5486 82.918 37.3966 82.9918 37.2801C83.0657 37.1622 83.1644 37.0699 83.288 37.0031C83.4116 36.9363 83.5479 36.8866 83.6971 36.854C83.8477 36.8199 83.9989 36.7929 84.1509 36.773C84.3498 36.7474 84.511 36.7282 84.6346 36.7155C84.7596 36.7013 84.8505 36.6778 84.9073 36.6452C84.9656 36.6125 84.9947 36.5557 84.9947 36.4747V36.4577C84.9947 36.2474 84.9371 36.0841 84.8221 35.9676C84.7085 35.8511 84.5359 35.7929 84.3043 35.7929C84.0643 35.7929 83.8761 35.8454 83.7397 35.9506C83.6033 36.0557 83.5075 36.1679 83.4521 36.2872L82.9748 36.1167C83.06 35.9179 83.1737 35.7631 83.3157 35.6523C83.4592 35.54 83.6154 35.4619 83.7844 35.4179C83.9549 35.3724 84.1225 35.3497 84.2873 35.3497C84.3924 35.3497 84.5131 35.3625 84.6495 35.3881C84.7873 35.4122 84.9201 35.4626 85.0479 35.5393C85.1772 35.616 85.2844 35.7318 85.3697 35.8866C85.4549 36.0415 85.4975 36.2488 85.4975 36.5088V38.665H84.9947V38.2219H84.9691C84.935 38.2929 84.8782 38.3689 84.7987 38.4498C84.7191 38.5308 84.6133 38.5997 84.4812 38.6565C84.3491 38.7133 84.1879 38.7417 83.9975 38.7417ZM84.0742 38.29C84.2731 38.29 84.4407 38.251 84.5771 38.1729C84.7148 38.0947 84.8185 37.9939 84.8881 37.8703C84.9592 37.7467 84.9947 37.6167 84.9947 37.4804V37.0202C84.9734 37.0457 84.9265 37.0692 84.854 37.0905C84.783 37.1104 84.7006 37.1281 84.6069 37.1437C84.5146 37.1579 84.4244 37.1707 84.3363 37.1821C84.2496 37.192 84.1793 37.2006 84.1254 37.2077C83.9947 37.2247 83.8725 37.2524 83.7589 37.2907C83.6467 37.3277 83.5558 37.3838 83.4862 37.4591C83.418 37.5329 83.3839 37.6338 83.3839 37.7616C83.3839 37.9363 83.4485 38.0684 83.5778 38.1579C83.7085 38.246 83.8739 38.29 84.0742 38.29ZM88.937 38.7417C88.7296 38.7417 88.5414 38.7027 88.3723 38.6246C88.2033 38.545 88.0691 38.4307 87.9696 38.2815C87.8702 38.1309 87.8205 37.9491 87.8205 37.7361C87.8205 37.5486 87.8574 37.3966 87.9313 37.2801C88.0051 37.1622 88.1039 37.0699 88.2275 37.0031C88.351 36.9363 88.4874 36.8866 88.6365 36.854C88.7871 36.8199 88.9384 36.7929 89.0904 36.773C89.2892 36.7474 89.4505 36.7282 89.574 36.7155C89.699 36.7013 89.79 36.6778 89.8468 36.6452C89.905 36.6125 89.9341 36.5557 89.9341 36.4747V36.4577C89.9341 36.2474 89.8766 36.0841 89.7615 35.9676C89.6479 35.8511 89.4753 35.7929 89.2438 35.7929C89.0037 35.7929 88.8155 35.8454 88.6792 35.9506C88.5428 36.0557 88.4469 36.1679 88.3915 36.2872L87.9142 36.1167C87.9995 35.9179 88.1131 35.7631 88.2551 35.6523C88.3986 35.54 88.5549 35.4619 88.7239 35.4179C88.8944 35.3724 89.062 35.3497 89.2267 35.3497C89.3319 35.3497 89.4526 35.3625 89.589 35.3881C89.7267 35.4122 89.8596 35.4626 89.9874 35.5393C90.1167 35.616 90.2239 35.7318 90.3091 35.8866C90.3944 36.0415 90.437 36.2488 90.437 36.5088V38.665H89.9341V38.2219H89.9086C89.8745 38.2929 89.8176 38.3689 89.7381 38.4498C89.6586 38.5308 89.5527 38.5997 89.4206 38.6565C89.2885 38.7133 89.1273 38.7417 88.937 38.7417ZM89.0137 38.29C89.2125 38.29 89.3801 38.251 89.5165 38.1729C89.6543 38.0947 89.758 37.9939 89.8276 37.8703C89.8986 37.7467 89.9341 37.6167 89.9341 37.4804V37.0202C89.9128 37.0457 89.8659 37.0692 89.7935 37.0905C89.7225 37.1104 89.6401 37.1281 89.5463 37.1437C89.454 37.1579 89.3638 37.1707 89.2757 37.1821C89.1891 37.192 89.1188 37.2006 89.0648 37.2077C88.9341 37.2247 88.812 37.2524 88.6983 37.2907C88.5861 37.3277 88.4952 37.3838 88.4256 37.4591C88.3574 37.5329 88.3233 37.6338 88.3233 37.7616C88.3233 37.9363 88.388 38.0684 88.5172 38.1579C88.6479 38.246 88.8134 38.29 89.0137 38.29ZM91.8576 36.6963V38.665H91.3548V35.3923H91.8406V35.9037H91.8832C91.9599 35.7375 92.0763 35.604 92.2326 35.5031C92.3888 35.4008 92.5906 35.3497 92.8377 35.3497C93.0593 35.3497 93.2532 35.3952 93.4194 35.4861C93.5856 35.5756 93.7148 35.7119 93.8072 35.8952C93.8995 36.077 93.9457 36.3071 93.9457 36.5855V38.665H93.4428V36.6196C93.4428 36.3625 93.3761 36.1622 93.2425 36.0187C93.109 35.8738 92.9258 35.8014 92.6928 35.8014C92.5323 35.8014 92.3888 35.8362 92.2624 35.9058C92.1374 35.9754 92.0387 36.077 91.9663 36.2105C91.8938 36.344 91.8576 36.5059 91.8576 36.6963ZM96.1003 38.7332C95.8276 38.7332 95.5868 38.6643 95.378 38.5265C95.1692 38.3873 95.0059 38.1913 94.888 37.9385C94.7701 37.6842 94.7111 37.3838 94.7111 37.0372C94.7111 36.6934 94.7701 36.3952 94.888 36.1423C95.0059 35.8895 95.1699 35.6942 95.3801 35.5564C95.5904 35.4186 95.8333 35.3497 96.1088 35.3497C96.3219 35.3497 96.4902 35.3852 96.6138 35.4562C96.7388 35.5258 96.834 35.6054 96.8993 35.6949C96.9661 35.7829 97.0179 35.8554 97.0549 35.9122H97.0975V34.3014H97.6003V38.665H97.1145V38.1622H97.0549C97.0179 38.2219 96.9654 38.2971 96.8972 38.3881C96.829 38.4775 96.7317 38.5578 96.6053 38.6288C96.4789 38.6984 96.3105 38.7332 96.1003 38.7332ZM96.1685 38.2815C96.3702 38.2815 96.5407 38.229 96.6799 38.1238C96.8191 38.0173 96.9249 37.8703 96.9973 37.6828C97.0698 37.4939 97.106 37.2758 97.106 37.0287C97.106 36.7844 97.0705 36.5706 96.9995 36.3873C96.9284 36.2027 96.8233 36.0592 96.6841 35.9569C96.5449 35.8532 96.373 35.8014 96.1685 35.8014C95.9554 35.8014 95.7779 35.8561 95.6358 35.9655C95.4952 36.0734 95.3894 36.2204 95.3184 36.4065C95.2488 36.5912 95.214 36.7986 95.214 37.0287C95.214 37.2616 95.2495 37.4733 95.3205 37.6636C95.3929 37.8525 95.4995 38.0031 95.6401 38.1153C95.7821 38.2261 95.9583 38.2815 96.1685 38.2815ZM100.781 34.3014V38.665H100.279V34.3014H100.781ZM103.075 38.7332C102.759 38.7332 102.487 38.6636 102.259 38.5244C102.031 38.3838 101.856 38.1878 101.732 37.9363C101.61 37.6835 101.549 37.3895 101.549 37.0542C101.549 36.719 101.61 36.4236 101.732 36.1679C101.856 35.9108 102.028 35.7105 102.248 35.567C102.469 35.4221 102.728 35.3497 103.023 35.3497C103.194 35.3497 103.362 35.3781 103.528 35.4349C103.695 35.4917 103.846 35.5841 103.982 35.7119C104.119 35.8383 104.227 36.0059 104.308 36.2148C104.389 36.4236 104.43 36.6807 104.43 36.9861V37.1991H101.907V36.7645H103.918C103.918 36.5798 103.881 36.415 103.808 36.2702C103.735 36.1253 103.631 36.0109 103.496 35.9271C103.363 35.8433 103.205 35.8014 103.023 35.8014C102.823 35.8014 102.65 35.8511 102.504 35.9506C102.359 36.0486 102.247 36.1764 102.169 36.3341C102.091 36.4917 102.052 36.6608 102.052 36.8412V37.1309C102.052 37.3781 102.094 37.5876 102.18 37.7595C102.266 37.93 102.386 38.0599 102.54 38.1494C102.693 38.2375 102.871 38.2815 103.075 38.2815C103.207 38.2815 103.326 38.2631 103.433 38.2261C103.54 38.1878 103.634 38.1309 103.712 38.0557C103.79 37.979 103.85 37.8838 103.893 37.7702L104.379 37.9065C104.327 38.0713 104.241 38.2162 104.121 38.3412C104 38.4648 103.851 38.5613 103.673 38.6309C103.496 38.6991 103.296 38.7332 103.075 38.7332ZM106.516 39.9605C106.273 39.9605 106.064 39.9292 105.889 39.8667C105.714 39.8057 105.569 39.7247 105.452 39.6238C105.337 39.5244 105.246 39.4179 105.178 39.3042L105.578 39.023C105.624 39.0827 105.681 39.1508 105.751 39.2275C105.82 39.3057 105.915 39.3731 106.036 39.43C106.158 39.4882 106.318 39.5173 106.516 39.5173C106.78 39.5173 106.998 39.4534 107.17 39.3256C107.342 39.1977 107.428 38.9974 107.428 38.7247V38.0599H107.385C107.348 38.1196 107.295 38.1934 107.227 38.2815C107.161 38.3682 107.064 38.4456 106.938 38.5138C106.812 38.5805 106.643 38.6139 106.43 38.6139C106.166 38.6139 105.929 38.5514 105.719 38.4264C105.51 38.3014 105.344 38.1196 105.222 37.8809C105.102 37.6423 105.041 37.3525 105.041 37.0116C105.041 36.6764 105.1 36.3845 105.218 36.1359C105.336 35.8859 105.5 35.6927 105.71 35.5564C105.92 35.4186 106.163 35.3497 106.439 35.3497C106.652 35.3497 106.821 35.3852 106.946 35.4562C107.072 35.5258 107.169 35.6054 107.236 35.6949C107.304 35.7829 107.357 35.8554 107.393 35.9122H107.445V35.3923H107.93V38.7588C107.93 39.04 107.866 39.2687 107.739 39.4449C107.612 39.6224 107.442 39.7524 107.227 39.8348C107.014 39.9186 106.777 39.9605 106.516 39.9605ZM106.499 38.1622C106.7 38.1622 106.871 38.116 107.01 38.0237C107.149 37.9314 107.255 37.7986 107.327 37.6253C107.4 37.452 107.436 37.2446 107.436 37.0031C107.436 36.7673 107.401 36.5592 107.33 36.3788C107.259 36.1984 107.153 36.0571 107.014 35.9548C106.875 35.8525 106.703 35.8014 106.499 35.8014C106.286 35.8014 106.108 35.8554 105.966 35.9633C105.825 36.0713 105.719 36.2162 105.648 36.398C105.579 36.5798 105.544 36.7815 105.544 37.0031C105.544 37.2304 105.58 37.4314 105.651 37.6061C105.723 37.7794 105.83 37.9157 105.97 38.0152C106.112 38.1132 106.288 38.1622 106.499 38.1622ZM109.814 38.7417C109.607 38.7417 109.418 38.7027 109.249 38.6246C109.08 38.545 108.946 38.4307 108.847 38.2815C108.747 38.1309 108.697 37.9491 108.697 37.7361C108.697 37.5486 108.734 37.3966 108.808 37.2801C108.882 37.1622 108.981 37.0699 109.104 37.0031C109.228 36.9363 109.364 36.8866 109.513 36.854C109.664 36.8199 109.815 36.7929 109.967 36.773C110.166 36.7474 110.327 36.7282 110.451 36.7155C110.576 36.7013 110.667 36.6778 110.724 36.6452C110.782 36.6125 110.811 36.5557 110.811 36.4747V36.4577C110.811 36.2474 110.754 36.0841 110.638 35.9676C110.525 35.8511 110.352 35.7929 110.121 35.7929C109.881 35.7929 109.692 35.8454 109.556 35.9506C109.42 36.0557 109.324 36.1679 109.268 36.2872L108.791 36.1167C108.876 35.9179 108.99 35.7631 109.132 35.6523C109.276 35.54 109.432 35.4619 109.601 35.4179C109.771 35.3724 109.939 35.3497 110.104 35.3497C110.209 35.3497 110.33 35.3625 110.466 35.3881C110.604 35.4122 110.737 35.4626 110.864 35.5393C110.994 35.616 111.101 35.7318 111.186 35.8866C111.271 36.0415 111.314 36.2488 111.314 36.5088V38.665H110.811V38.2219H110.786C110.751 38.2929 110.695 38.3689 110.615 38.4498C110.536 38.5308 110.43 38.5997 110.298 38.6565C110.165 38.7133 110.004 38.7417 109.814 38.7417ZM109.891 38.29C110.089 38.29 110.257 38.251 110.393 38.1729C110.531 38.0947 110.635 37.9939 110.705 37.8703C110.776 37.7467 110.811 37.6167 110.811 37.4804V37.0202C110.79 37.0457 110.743 37.0692 110.67 37.0905C110.599 37.1104 110.517 37.1281 110.423 37.1437C110.331 37.1579 110.241 37.1707 110.153 37.1821C110.066 37.192 109.996 37.2006 109.942 37.2077C109.811 37.2247 109.689 37.2524 109.575 37.2907C109.463 37.3277 109.372 37.3838 109.303 37.4591C109.234 37.5329 109.2 37.6338 109.2 37.7616C109.2 37.9363 109.265 38.0684 109.394 38.1579C109.525 38.246 109.69 38.29 109.891 38.29ZM112.735 34.3014V38.665H112.232V34.3014H112.735ZM116.715 38.7332C116.4 38.7332 116.128 38.6636 115.899 38.5244C115.672 38.3838 115.496 38.1878 115.373 37.9363C115.251 37.6835 115.19 37.3895 115.19 37.0542C115.19 36.719 115.251 36.4236 115.373 36.1679C115.496 35.9108 115.668 35.7105 115.888 35.567C116.11 35.4221 116.369 35.3497 116.664 35.3497C116.835 35.3497 117.003 35.3781 117.169 35.4349C117.335 35.4917 117.487 35.5841 117.623 35.7119C117.759 35.8383 117.868 36.0059 117.949 36.2148C118.03 36.4236 118.07 36.6807 118.07 36.9861V37.1991H115.548V36.7645H117.559C117.559 36.5798 117.522 36.415 117.448 36.2702C117.376 36.1253 117.272 36.0109 117.137 35.9271C117.004 35.8433 116.846 35.8014 116.664 35.8014C116.464 35.8014 116.29 35.8511 116.144 35.9506C115.999 36.0486 115.888 36.1764 115.81 36.3341C115.732 36.4917 115.692 36.6608 115.692 36.8412V37.1309C115.692 37.3781 115.735 37.5876 115.82 37.7595C115.907 37.93 116.027 38.0599 116.18 38.1494C116.334 38.2375 116.512 38.2815 116.715 38.2815C116.847 38.2815 116.967 38.2631 117.073 38.2261C117.181 38.1878 117.274 38.1309 117.352 38.0557C117.43 37.979 117.491 37.8838 117.533 37.7702L118.019 37.9065C117.968 38.0713 117.882 38.2162 117.761 38.3412C117.641 38.4648 117.491 38.5613 117.314 38.6309C117.136 38.6991 116.937 38.7332 116.715 38.7332ZM119.798 38.7417C119.591 38.7417 119.403 38.7027 119.234 38.6246C119.065 38.545 118.93 38.4307 118.831 38.2815C118.732 38.1309 118.682 37.9491 118.682 37.7361C118.682 37.5486 118.719 37.3966 118.793 37.2801C118.866 37.1622 118.965 37.0699 119.089 37.0031C119.212 36.9363 119.349 36.8866 119.498 36.854C119.648 36.8199 119.8 36.7929 119.952 36.773C120.151 36.7474 120.312 36.7282 120.435 36.7155C120.56 36.7013 120.651 36.6778 120.708 36.6452C120.766 36.6125 120.795 36.5557 120.795 36.4747V36.4577C120.795 36.2474 120.738 36.0841 120.623 35.9676C120.509 35.8511 120.337 35.7929 120.105 35.7929C119.865 35.7929 119.677 35.8454 119.54 35.9506C119.404 36.0557 119.308 36.1679 119.253 36.2872L118.776 36.1167C118.861 35.9179 118.974 35.7631 119.116 35.6523C119.26 35.54 119.416 35.4619 119.585 35.4179C119.756 35.3724 119.923 35.3497 120.088 35.3497C120.193 35.3497 120.314 35.3625 120.45 35.3881C120.588 35.4122 120.721 35.4626 120.849 35.5393C120.978 35.616 121.085 35.7318 121.17 35.8866C121.256 36.0415 121.298 36.2488 121.298 36.5088V38.665H120.795V38.2219H120.77C120.736 38.2929 120.679 38.3689 120.599 38.4498C120.52 38.5308 120.414 38.5997 120.282 38.6565C120.15 38.7133 119.989 38.7417 119.798 38.7417ZM119.875 38.29C120.074 38.29 120.241 38.251 120.378 38.1729C120.516 38.0947 120.619 37.9939 120.689 37.8703C120.76 37.7467 120.795 37.6167 120.795 37.4804V37.0202C120.774 37.0457 120.727 37.0692 120.655 37.0905C120.584 37.1104 120.501 37.1281 120.408 37.1437C120.315 37.1579 120.225 37.1707 120.137 37.1821C120.05 37.192 119.98 37.2006 119.926 37.2077C119.795 37.2247 119.673 37.2524 119.56 37.2907C119.447 37.3277 119.357 37.3838 119.287 37.4591C119.219 37.5329 119.185 37.6338 119.185 37.7616C119.185 37.9363 119.249 38.0684 119.379 38.1579C119.509 38.246 119.675 38.29 119.875 38.29ZM123.537 39.9605C123.294 39.9605 123.085 39.9292 122.911 39.8667C122.736 39.8057 122.59 39.7247 122.474 39.6238C122.359 39.5244 122.267 39.4179 122.199 39.3042L122.6 39.023C122.645 39.0827 122.703 39.1508 122.772 39.2275C122.842 39.3057 122.937 39.3731 123.058 39.43C123.18 39.4882 123.34 39.5173 123.537 39.5173C123.801 39.5173 124.019 39.4534 124.191 39.3256C124.363 39.1977 124.449 38.9974 124.449 38.7247V38.0599H124.406C124.369 38.1196 124.317 38.1934 124.249 38.2815C124.182 38.3682 124.085 38.4456 123.959 38.5138C123.834 38.5805 123.665 38.6139 123.452 38.6139C123.188 38.6139 122.95 38.5514 122.74 38.4264C122.531 38.3014 122.366 38.1196 122.244 37.8809C122.123 37.6423 122.063 37.3525 122.063 37.0116C122.063 36.6764 122.122 36.3845 122.24 36.1359C122.357 35.8859 122.521 35.6927 122.732 35.5564C122.942 35.4186 123.185 35.3497 123.46 35.3497C123.673 35.3497 123.843 35.3852 123.968 35.4562C124.094 35.5258 124.191 35.6054 124.257 35.6949C124.325 35.7829 124.378 35.8554 124.415 35.9122H124.466V35.3923H124.952V38.7588C124.952 39.04 124.888 39.2687 124.76 39.4449C124.634 39.6224 124.463 39.7524 124.249 39.8348C124.036 39.9186 123.798 39.9605 123.537 39.9605ZM123.52 38.1622C123.722 38.1622 123.892 38.116 124.031 38.0237C124.171 37.9314 124.276 37.7986 124.349 37.6253C124.421 37.452 124.458 37.2446 124.458 37.0031C124.458 36.7673 124.422 36.5592 124.351 36.3788C124.28 36.1984 124.175 36.0571 124.036 35.9548C123.896 35.8525 123.725 35.8014 123.52 35.8014C123.307 35.8014 123.129 35.8554 122.987 35.9633C122.847 36.0713 122.741 36.2162 122.67 36.398C122.6 36.5798 122.566 36.7815 122.566 37.0031C122.566 37.2304 122.601 37.4314 122.672 37.6061C122.744 37.7794 122.851 37.9157 122.992 38.0152C123.134 38.1132 123.31 38.1622 123.52 38.1622ZM126.375 34.3014V38.665H125.872V34.3014H126.375ZM128.668 38.7332C128.353 38.7332 128.081 38.6636 127.852 38.5244C127.625 38.3838 127.45 38.1878 127.326 37.9363C127.204 37.6835 127.143 37.3895 127.143 37.0542C127.143 36.719 127.204 36.4236 127.326 36.1679C127.45 35.9108 127.621 35.7105 127.842 35.567C128.063 35.4221 128.322 35.3497 128.617 35.3497C128.788 35.3497 128.956 35.3781 129.122 35.4349C129.288 35.4917 129.44 35.5841 129.576 35.7119C129.712 35.8383 129.821 36.0059 129.902 36.2148C129.983 36.4236 130.023 36.6807 130.023 36.9861V37.1991H127.501V36.7645H129.512C129.512 36.5798 129.475 36.415 129.401 36.2702C129.329 36.1253 129.225 36.0109 129.09 35.9271C128.957 35.8433 128.799 35.8014 128.617 35.8014C128.417 35.8014 128.244 35.8511 128.097 35.9506C127.952 36.0486 127.841 36.1764 127.763 36.3341C127.685 36.4917 127.646 36.6608 127.646 36.8412V37.1309C127.646 37.3781 127.688 37.5876 127.773 37.7595C127.86 37.93 127.98 38.0599 128.134 38.1494C128.287 38.2375 128.465 38.2815 128.668 38.2815C128.8 38.2815 128.92 38.2631 129.026 38.2261C129.134 38.1878 129.227 38.1309 129.305 38.0557C129.384 37.979 129.444 37.8838 129.487 37.7702L129.972 37.9065C129.921 38.0713 129.835 38.2162 129.714 38.3412C129.594 38.4648 129.445 38.5613 129.267 38.6309C129.089 38.6991 128.89 38.7332 128.668 38.7332Z" fill="black"/>
<path d="M39.9952 18.7705H48.6855C48.7193 20.082 48.5481 21.3222 48.1697 22.4892C47.7913 23.6561 47.2248 24.691 46.468 25.594C45.7112 26.497 44.7748 27.2093 43.6565 27.7288C42.5382 28.2484 41.2572 28.5082 39.8134 28.5082C38.4542 28.5082 37.2006 28.2819 36.0486 27.8315C34.8965 27.3811 33.8945 26.7379 33.0447 25.902C32.1928 25.0681 31.5354 24.0793 31.0724 22.9375C30.6074 21.7957 30.377 20.5429 30.377 19.1811C30.377 17.8193 30.6137 16.5707 31.0872 15.4373C31.5607 14.3039 32.2266 13.3255 33.087 12.4979C33.9473 11.6725 34.9514 11.0335 36.1035 10.581C37.2556 10.1306 38.5113 9.9043 39.8684 9.9043C41.0543 9.9043 42.1324 10.0656 43.1048 10.3903C44.0751 10.7151 44.9396 11.1697 45.6964 11.7584C46.4532 12.3471 47.0979 13.0573 47.6306 13.8932L45.1553 15.5295C44.6564 14.6768 43.9651 13.9959 43.0794 13.4847C42.1937 12.9735 41.124 12.7179 39.8684 12.7179C38.7163 12.7179 37.6636 12.9861 36.7081 13.5224C35.7547 14.0587 34.9979 14.8088 34.4378 15.7725C33.8797 16.7362 33.6007 17.8738 33.6007 19.1853C33.6007 20.4968 33.8755 21.6176 34.4251 22.5981C34.9747 23.5786 35.723 24.3412 36.6679 24.8859C37.6128 25.4306 38.6804 25.7029 39.8663 25.7029C40.6738 25.7029 41.3967 25.5919 42.033 25.3698C42.6693 25.1478 43.2189 24.8335 43.684 24.425C44.149 24.0164 44.5359 23.5471 44.8445 23.0192C45.1531 22.4912 45.3857 21.9298 45.54 21.3327H39.9952V18.7768V18.7705Z" fill="#2D9CDB"/>
<path d="M51.4718 15.4742C51.9369 14.3491 52.5943 13.3749 53.4441 12.5474C54.296 11.722 55.2917 11.0746 56.4353 10.6053C57.5789 10.136 58.8113 9.90137 60.1367 9.90137C61.4622 9.90137 62.7411 10.136 63.8762 10.6053C65.0114 11.0746 66.0028 11.722 66.8547 12.5474C67.7066 13.3749 68.364 14.3491 68.827 15.4742C69.2921 16.5992 69.5225 17.8353 69.5225 19.1803C69.5225 20.5253 69.2899 21.7446 68.827 22.8864C68.3619 24.0282 67.7087 25.017 66.8674 25.8508C66.024 26.6868 65.0368 27.3383 63.9016 27.8055C62.7664 28.2748 61.5108 28.5094 60.1367 28.5094C58.7627 28.5094 57.5535 28.2748 56.4099 27.8055C55.2663 27.3362 54.2728 26.6847 53.4314 25.8508C52.588 25.017 51.9348 24.0282 51.4718 22.8864C51.0068 21.7446 50.7764 20.5085 50.7764 19.1803C50.7764 17.852 51.0089 16.5992 51.4718 15.4742ZM54.7991 22.4506C55.3318 23.4059 56.059 24.1602 56.9786 24.7132C57.8981 25.2663 58.9508 25.5429 60.1388 25.5429C61.3269 25.5429 62.4028 25.2663 63.3245 24.7132C64.244 24.1602 64.967 23.4059 65.4913 22.4506C66.0155 21.4974 66.2776 20.4059 66.2776 19.1782C66.2776 17.9505 66.0197 16.8569 65.5039 15.8932C64.9881 14.9315 64.2694 14.1773 63.3499 13.6305C62.4303 13.0858 61.3586 12.8135 60.1388 12.8135C58.9191 12.8135 57.9002 13.0858 56.9786 13.6305C56.059 14.1752 55.3318 14.9294 54.7991 15.8932C54.2664 16.8569 54.0001 17.9505 54.0001 19.1782C54.0001 20.4059 54.2664 21.4953 54.7991 22.4506Z" fill="#2D9CDB"/>
<path d="M69.6026 31.0003C69.9641 31.1617 70.3594 31.2434 70.7885 31.2434C71.1838 31.2434 71.5707 31.0778 71.9491 30.7447C72.3274 30.4116 72.5156 29.846 72.5156 29.0457V10.2344H75.6357V29.582C75.6357 30.3488 75.5194 31.0045 75.2869 31.5492C75.0544 32.0939 74.7225 32.5465 74.2934 32.9047C73.8643 33.263 73.3569 33.5228 72.7714 33.6841C72.1858 33.8454 71.5601 33.9271 70.8879 33.9271C70.3552 33.9271 69.8352 33.8538 69.3278 33.7092C68.8205 33.5647 68.3787 33.3887 68.0003 33.1854C67.6219 32.9801 67.3217 32.7853 67.0977 32.5967L68.7232 30.3739C68.9473 30.6295 69.239 30.8369 69.6005 31.0003H69.6026Z" fill="black"/>
<path d="M82.5481 10.2344V22.1195C82.5481 23.211 82.8483 24.0972 83.4507 24.7781C84.0532 25.459 84.9283 25.8005 86.0804 25.8005C87.2325 25.8005 88.1309 25.459 88.7249 24.7781C89.3189 24.0972 89.6149 23.211 89.6149 22.1195V10.2344H92.6843V22.2473C92.6843 23.2361 92.5257 24.1182 92.2065 24.8933C91.8873 25.6685 91.4328 26.3284 90.8388 26.8752C90.2448 27.4199 89.5451 27.8389 88.7376 28.128C87.9301 28.4172 87.0444 28.5617 86.0804 28.5617C85.1165 28.5617 84.2329 28.4172 83.4232 28.128C82.6157 27.8389 81.9181 27.422 81.3347 26.8752C80.7492 26.3305 80.2989 25.6706 79.9797 24.8933C79.6605 24.1182 79.502 23.2361 79.502 22.2473V10.2344H82.546H82.5481Z" fill="black"/>
<path d="M99.5938 10.2347V28.1262H96.5498V10.2347H99.5938ZM98.3572 10.2347H102.122C103.445 10.2347 104.589 10.4651 105.553 10.9239C106.515 11.3848 107.267 12.028 107.808 12.8534C108.35 13.681 108.62 14.6552 108.62 15.7802C108.62 16.9052 108.35 17.8857 107.808 18.7195C107.267 19.5555 106.515 20.2028 105.553 20.6616C104.589 21.1225 103.447 21.3509 102.122 21.3509H98.3572V18.8452H101.993C102.697 18.8452 103.308 18.73 103.824 18.4996C104.34 18.2691 104.743 17.9297 105.035 17.4772C105.327 17.0268 105.473 16.4841 105.473 15.8535C105.473 15.2229 105.327 14.6615 105.035 14.2173C104.743 13.7753 104.34 13.4338 103.824 13.1949C103.308 12.9561 102.697 12.8367 101.993 12.8367H98.3572V10.2305V10.2347ZM103.566 19.589L109.705 28.1262H106.016L100.291 19.589H103.566Z" fill="black"/>
<path d="M114.99 10.2344V28.1259H111.896V10.2344H114.99Z" fill="black"/>
<path d="M121.449 24.1645C121.904 24.6757 122.411 25.0758 122.971 25.3649C123.529 25.6541 124.145 25.7986 124.815 25.7986C125.639 25.7986 126.311 25.5765 126.827 25.1345C127.343 24.6924 127.601 24.1121 127.601 23.3956C127.601 22.7482 127.442 22.2245 127.123 21.8243C126.804 21.4242 126.354 21.0827 125.768 20.802C125.182 20.5212 124.512 20.2447 123.756 19.9723C123.307 19.8194 122.811 19.6099 122.259 19.3459C121.709 19.0819 121.185 18.7488 120.686 18.3487C120.187 17.9485 119.775 17.4541 119.447 16.8654C119.12 16.2767 118.957 15.5665 118.957 14.7306C118.957 13.7773 119.206 12.9372 119.705 12.2123C120.204 11.4874 120.879 10.9218 121.73 10.5133C122.582 10.1047 123.548 9.89941 124.633 9.89941C125.717 9.89941 126.626 10.0922 127.419 10.4755C128.21 10.8589 128.88 11.3408 129.431 11.919C129.981 12.4993 130.402 13.1027 130.696 13.7333L128.246 15.1139C128.005 14.6719 127.713 14.2571 127.368 13.8737C127.024 13.4903 126.624 13.1844 126.17 12.954C125.713 12.7235 125.185 12.6083 124.584 12.6083C123.741 12.6083 123.124 12.801 122.728 13.1844C122.333 13.5678 122.134 14.0141 122.134 14.5252C122.134 14.9862 122.276 15.3989 122.559 15.7655C122.842 16.1321 123.284 16.4778 123.887 16.8004C124.489 17.1252 125.271 17.4562 126.233 17.7977C126.783 17.9862 127.33 18.223 127.871 18.5142C128.413 18.8033 128.903 19.1615 129.341 19.5868C129.778 20.0121 130.135 20.5191 130.41 21.1078C130.685 21.6965 130.822 22.3816 130.822 23.1652C130.822 24.0011 130.655 24.749 130.319 25.4152C129.983 26.0814 129.533 26.6387 128.966 27.0891C128.4 27.5417 127.757 27.8895 127.045 28.1367C126.33 28.3839 125.588 28.5075 124.815 28.5075C123.766 28.5075 122.79 28.298 121.887 27.8811C120.984 27.4642 120.194 26.9048 119.515 26.2071C118.837 25.5095 118.3 24.7511 117.904 23.9319L120.175 22.3481C120.57 23.0478 120.995 23.6512 121.451 24.1624L121.449 24.1645Z" fill="black"/>
<path d="M132.975 10.9856L132.962 11.1448L132.364 12.4814H131.544L133.652 7.96875L135.765 12.4814H134.939L134.353 11.1804L134.341 11.0024L133.652 9.41432L132.973 10.9835L132.975 10.9856ZM132.666 10.7719H134.668L134.804 11.3837H132.523L132.664 10.7719H132.666Z" fill="black"/>
<path d="M137 8.20703V12.483H136.26V8.20703H137Z" fill="black"/>
<path d="M11.8428 0.469868C11.8703 0.474059 11.8956 0.478249 11.9231 0.480344L12.386 0.505484C12.2064 0.488724 12.0246 0.476154 11.8428 0.467773V0.469868Z" fill="#2D9CDB"/>
<path d="M14.7635 5.64592L12.3854 5.51603L11.9224 5.49089C11.8949 5.4888 11.8696 5.48461 11.8421 5.48042C11.8146 5.48042 11.7892 5.48042 11.7618 5.47832C11.6222 5.47413 11.4806 5.46994 11.339 5.46994C5.08817 5.46785 0 10.5085 0 16.7056C0 22.9027 5.08817 27.9433 11.339 27.9433C17.5898 27.9433 22.678 22.9006 22.678 16.7056C22.678 13.3326 21.1707 10.3011 18.7884 8.24167C18.8793 8.21443 18.9702 8.1872 19.059 8.15996C21.4477 7.41832 23.5891 6.14873 25.5444 4.67383C23.7222 5.361 21.8261 5.89733 19.9024 6.08378M11.339 23.8685C7.35427 23.8685 4.11154 20.6547 4.11154 16.7056C4.11154 12.7565 7.35427 9.54268 11.339 9.54268C15.3237 9.54268 18.5664 12.7565 18.5664 16.7056C18.5664 20.6547 15.3237 23.8685 11.339 23.8685Z" fill="#2D9CDB"/>
<path d="M11.339 41.0004C5.08817 41.0004 0 35.9598 0 29.7627H4.11154C4.11154 33.7118 7.35427 36.9256 11.339 36.9256C15.3237 36.9256 18.5664 33.7118 18.5664 29.7627H22.678C22.678 35.9598 17.5919 41.0004 11.339 41.0004Z" fill="black"/>
<path d="M11.8415 0.469383C11.8142 0.469383 11.789 0.469383 11.7617 0.467303V0.458984C11.789 0.463144 11.8142 0.467303 11.8415 0.469383Z" fill="#2D9CDB"/>
<path d="M11.3393 31.558C11.839 31.558 12.2441 31.1565 12.2441 30.6613C12.2441 30.1661 11.839 29.7646 11.3393 29.7646C10.8396 29.7646 10.4346 30.1661 10.4346 30.6613C10.4346 31.1565 10.8396 31.558 11.3393 31.558Z" fill="black"/>
<path d="M11.3393 34.1713C11.839 34.1713 12.2441 33.7698 12.2441 33.2746C12.2441 32.7794 11.839 32.3779 11.3393 32.3779C10.8396 32.3779 10.4346 32.7794 10.4346 33.2746C10.4346 33.7698 10.8396 34.1713 11.3393 34.1713Z" fill="black"/>
</svg>
