<svg width="32" height="33" viewBox="0 0 32 33" fill="none" xmlns="http://www.w3.org/2000/svg">
<path d="M9.09 14.4026L8.22 16.9746H6L9.724 6.97461H12.292L16 16.9746H13.666L12.796 14.4026H9.09ZM12.358 12.9306L11 8.88661H10.902L9.544 12.9306H12.358Z" fill="#2D9CDB"/>
<path d="M0 4.97461C0 3.91374 0.421427 2.89633 1.17157 2.14618C1.92172 1.39604 2.93913 0.974609 4 0.974609L18 0.974609C19.0609 0.974609 20.0783 1.39604 20.8284 2.14618C21.5786 2.89633 22 3.91374 22 4.97461V10.9746H28C29.0609 10.9746 30.0783 11.396 30.8284 12.1462C31.5786 12.8963 32 13.9137 32 14.9746V28.9746C32 30.0355 31.5786 31.0529 30.8284 31.803C30.0783 32.5532 29.0609 32.9746 28 32.9746H14C12.9391 32.9746 11.9217 32.5532 11.1716 31.803C10.4214 31.0529 10 30.0355 10 28.9746V22.9746H4C2.93913 22.9746 1.92172 22.5532 1.17157 21.803C0.421427 21.0529 0 20.0355 0 18.9746V4.97461ZM4 2.97461C3.46957 2.97461 2.96086 3.18532 2.58579 3.5604C2.21071 3.93547 2 4.44418 2 4.97461V18.9746C2 19.505 2.21071 20.0138 2.58579 20.3888C2.96086 20.7639 3.46957 20.9746 4 20.9746H18C18.5304 20.9746 19.0391 20.7639 19.4142 20.3888C19.7893 20.0138 20 19.505 20 18.9746V4.97461C20 4.44418 19.7893 3.93547 19.4142 3.5604C19.0391 3.18532 18.5304 2.97461 18 2.97461H4ZM18.276 22.9646C18.6613 23.5659 19.0813 24.1299 19.536 24.6566C18.04 25.8066 16.19 26.6586 14 27.2406C14.356 27.6746 14.902 28.5106 15.11 28.9746C17.36 28.2566 19.27 27.2866 20.882 25.9866C22.436 27.3166 24.36 28.3166 26.742 28.9306C27.008 28.4226 27.57 27.5846 28 27.1506C25.75 26.6446 23.886 25.7626 22.36 24.5826C23.722 23.0886 24.804 21.2806 25.602 19.0686H28V16.9746H22V19.0686H23.53C22.894 20.7566 22.05 22.1606 20.986 23.3286C20.6919 23.0157 20.4149 22.6872 20.156 22.3446C19.5912 22.7055 18.9447 22.9187 18.276 22.9646Z" fill="#2D9CDB"/>
</svg>
