<svg width="24" height="25" viewBox="0 0 24 25" fill="none" xmlns="http://www.w3.org/2000/svg">
<path d="M22.1333 24.9746L13.7333 16.5746C13.0667 17.1079 12.3 17.5302 11.4333 17.8413C10.5667 18.1524 9.64445 18.3079 8.66667 18.3079C6.24445 18.3079 4.19467 17.4688 2.51733 15.7906C0.840001 14.1124 0.000889594 12.0626 7.05467e-07 9.64128C-0.000888183 7.21994 0.838223 5.17017 2.51733 3.49194C4.19645 1.81372 6.24622 0.974609 8.66667 0.974609C11.0871 0.974609 13.1373 1.81372 14.8173 3.49194C16.4973 5.17017 17.336 7.21994 17.3333 9.64128C17.3333 10.6191 17.1778 11.5413 16.8667 12.4079C16.5556 13.2746 16.1333 14.0413 15.6 14.7079L24 23.1079L22.1333 24.9746ZM8.66667 15.6413C10.3333 15.6413 11.7502 15.0582 12.9173 13.8919C14.0844 12.7257 14.6676 11.3088 14.6667 9.64128C14.6658 7.97372 14.0827 6.55728 12.9173 5.39194C11.752 4.22661 10.3351 3.64305 8.66667 3.64128C6.99822 3.6395 5.58178 4.22305 4.41733 5.39194C3.25289 6.56083 2.66933 7.97728 2.66667 9.64128C2.664 11.3053 3.24756 12.7222 4.41733 13.8919C5.58711 15.0617 7.00356 15.6448 8.66667 15.6413Z" fill="#2D9CDB"/>
</svg>
